<svg width="418" height="236" xmlns="http://www.w3.org/2000/svg">
  <path id="svg_1" fill="#E3E3E3" d="m14.128,18.8l0,10.9l36.9,0.6c20.3,0.4 51.1,0.4 68.5,0l31.6,-0.6l0,-10.9l0,-10.8l-68.5,0l-68.5,0l0,10.8z"/>
  <path id="svg_2" fill="#E3E3E3" d="m339.128,215.513l0,10.611l18.315,0.584c10.076,0.389 25.364,0.389 34,0l15.685,-0.584l0,-10.611l0,-10.513l-34,0l-34,0l0,10.513z"/>
  <path id="svg_3" fill="#E3E3E3" d="m70.628,51.1c-17.1,1.6 -32.4,9.4 -43,21.8c-20.4,23.9 -19.2,62.4 2.6,84.2c17,17 41.2,23.4 67.6,18c13.6,-2.8 28.1,-10.9 34.2,-19.2c1.9,-2.6 2.1,-3.3 1,-4.4c-11.3,-10.3 -22.9,-20.5 -23.4,-20.5c-0.4,0 -2.8,1.8 -5.3,4.1c-8,7 -11.5,8.4 -21.7,8.4c-10.7,0 -16.6,-2.3 -21.3,-8.2c-6,-7.7 -6.7,-10 -6.7,-21.3c0,-9 0.3,-11.2 2.3,-15.3c7.9,-16 27.4,-20.4 43.1,-9.8c3.2,2.2 6.4,5 7.3,6.2c1.5,2.3 1.5,2.3 14.1,-9c7,-6.2 12.7,-11.6 12.7,-11.9c0,-1.2 -5.3,-6.5 -10,-10.3c-3.8,-3 -10.7,-6.7 -18.5,-9.9c-6.7,-2.8 -22.7,-4.1 -35,-2.9z"/>
  <path id="svg_4" fill="#E3E3E3" d="m199.128,51c-9.1,0.8 -11.7,1.4 -20,4.8c-14.1,5.6 -25.9,16.1 -32.3,28.7c-6.3,12.5 -8.4,23.9 -6.7,36.9c2.1,15.3 7.2,25.8 17.2,35.8c14.2,14 33.2,20.8 54.7,19.5c19.2,-1.1 35.3,-7.8 46.7,-19.4c5.6,-5.8 11.7,-15.2 13.7,-21.3c3.9,-11.9 4.7,-25.4 2.2,-37c-1.7,-8.1 -8.4,-21.2 -13.5,-26.7c-15.4,-16.3 -36.3,-23.5 -62,-21.3zm20.5,34.8c5.9,3.2 9.2,6.5 12.3,12.4c2.4,4.8 2.7,6.3 2.7,15.8c-0.1,12.1 -1.8,16.8 -8.7,23.2c-7.5,7 -21,8.8 -30.4,4c-10.2,-5.2 -14.8,-14.7 -14.2,-29.5c0.3,-9.7 2.2,-15.1 7.1,-20.1c2.9,-3.1 9.7,-7.3 12.8,-7.9c4.9,-1.1 14.5,0 18.4,2.1z"/>
  <path id="svg_5" fill="#E3E3E3" d="m292.128,113.5l0,60.5l20,0l20,0l0,-15l0,-15l5.9,0l5.8,0l8.5,12.2c4.6,6.8 9.2,13.5 10.1,15l1.7,2.8l21.5,0l21.5,0l-4.7,-7.4c-2.7,-4.1 -8.1,-12.3 -12,-18.1c-4,-5.8 -7.3,-10.9 -7.3,-11.3c0,-0.4 1.8,-1.8 4,-3.2c4.6,-2.8 10.8,-9.7 13.5,-15c6.2,-11.9 5.9,-29.4 -0.6,-42.2c-5,-9.8 -17.3,-18.1 -32.4,-21.8c-7.1,-1.8 -11.7,-2 -41.7,-2l-33.8,0l0,60.5zm60.8,-28.9c1.7,0.4 4.8,2.1 6.8,3.8c3.3,2.8 3.8,3.8 4.1,8.7c0.5,6.7 -1.7,11.5 -6.7,14.1c-2.7,1.4 -5.7,1.8 -14.2,1.8l-10.8,0l0,-14.5l0,-14.5l8.9,0c4.9,0 10.2,0.3 11.9,0.6z"/>
  <path id="svg_6" fill="#E3E3E3" d="m92.128,202.1c0,4.5 -0.2,5 -1.7,4.4c-5.8,-2.5 -13.6,-0.4 -15.4,4.2c-1.8,4.8 -1.1,10.1 1.9,13.4c2.3,2.6 3.4,3.1 7.5,3.1c2.6,0 5.4,-0.6 6.2,-1.2c1.1,-0.9 1.5,-0.9 1.5,-0.1c0,0.6 1.4,1.1 3,1.1l3,0l0,-15l0,-15l-3,0c-2.9,0 -3,0.1 -3,5.1zm-1.9,9.5c3.2,3.9 0.4,11.4 -4.3,11.4c-2.5,0 -5.8,-3.6 -5.8,-6.3c0,-5.6 6.8,-9 10.1,-5.1z"/>
  <path id="svg_7" fill="#E3E3E3" d="m21.128,199.9c-7,3.7 -10.2,13.2 -6.7,20c3.7,7.3 17,10.2 23.7,5.1c2.4,-1.8 2.4,-1.9 0.6,-3.9c-1.7,-1.8 -2.1,-1.9 -3.5,-0.7c-4.5,3.8 -12.1,2.3 -14.6,-3c-4.1,-8.6 3.9,-16.8 12.7,-12.8c3.6,1.6 4,1.6 5.5,0.1c2.2,-2.1 0.4,-4.3 -4.6,-5.7c-5.3,-1.5 -9.2,-1.2 -13.1,0.9z"/>
  <path id="svg_8" fill="#E3E3E3" d="m157.628,198.7c-6.8,1.7 -10.9,8.1 -10.3,15.9c0.7,8.6 6.1,12.8 16.1,12.7c7.2,-0.1 11.7,-3.2 14.2,-9.8c1.7,-4.2 1.7,-4.8 0.1,-8.8c-3.3,-8.6 -10.8,-12.3 -20.1,-10zm10.2,6.3c6.1,3.7 5.6,13.1 -1,16.3c-11.2,5.6 -19.1,-10.9 -8.2,-17.1c2.9,-1.7 5.6,-1.4 9.2,0.8z"/>
  <path id="svg_9" fill="#E3E3E3" d="m230.128,212.4l0,14.6l3.5,0c3.4,0 3.5,-0.1 3.5,-4c0,-3.8 0.2,-4 2.9,-4c2.3,0 3.6,0.9 5.8,4c2.3,3.3 3.4,4 6.2,4c3.3,0 3.3,0 1.7,-2.3c-3.8,-5.1 -4,-6.5 -1.7,-8.4c3.1,-2.6 4.2,-7.3 2.6,-11.1c-2.1,-4.8 -5.3,-6.2 -15.4,-6.9l-9.1,-0.6l0,14.7zm17.4,-6.8c3.8,3.7 0.4,8.4 -6.1,8.4l-4.3,0l0,-5l0,-5l4.4,0c2.7,0 5.1,0.6 6,1.6z"/>
  <path id="svg_10" fill="#E3E3E3" d="m50.228,206.7c-6.6,3.3 -7.6,12.7 -1.9,18c4,3.7 12.6,3.4 16.9,-0.5c2.7,-2.4 3.2,-3.6 3.3,-7.5c0.1,-4 -0.4,-5.1 -3,-7.8c-3.9,-3.9 -10.2,-4.8 -15.3,-2.2zm10,4.3c1.4,0.8 1.9,2.1 1.9,5c0,7.2 -6.4,9.7 -9.9,3.9c-3.8,-6.3 1.6,-12.3 8,-8.9z"/>
  <path id="svg_11" fill="#E3E3E3" d="m110.728,206.5c-4.3,2.3 -5.5,4.4 -5.6,9.8c0,4.1 0.5,5.3 2.9,7.8c2.6,2.5 3.7,2.9 8.6,2.9c3.1,0 6.5,-0.5 7.6,-1.1c1.9,-1 2,-1.2 0.4,-2.9c-1.4,-1.5 -2.1,-1.6 -4.6,-0.7c-2.4,0.9 -3.5,0.9 -5.6,-0.3c-5.3,-3 -4,-4 5.1,-4c7.8,0 8.6,-0.2 8.6,-1.9c0,-3.7 -2,-7.1 -5.2,-9.1c-3.9,-2.4 -8.2,-2.5 -12.2,-0.5zm9.2,4.1c4,2.8 2.8,4.4 -3.3,4.4c-4.1,0 -5.5,-0.4 -5.5,-1.4c0,-1.6 3.7,-4.6 5.5,-4.6c0.6,0 2.1,0.7 3.3,1.6z"/>
  <path id="svg_12" fill="#E3E3E3" d="m185.828,205.7c-0.4,0.3 -0.7,5.3 -0.7,11l0,10.3l3.5,0l3.5,0l0,-7.5c0,-6.3 0.3,-7.6 1.9,-8.5c5.5,-2.9 8.1,0 8.1,9.1l0,6.9l3,0l3,0l0,-8.3c0,-6.3 -0.5,-8.7 -1.8,-10.5c-2.3,-3 -8.1,-3.9 -12.1,-1.9c-2.6,1.3 -3.1,1.3 -3.1,0.1c0,-1.4 -4.1,-2 -5.3,-0.7z"/>
  <path id="svg_13" fill="#E3E3E3" d="m262.828,205.6c-1,1.1 -0.8,11.4 0.3,15.5c0.6,2 1.7,4.2 2.4,4.8c1.9,1.6 10.2,1.6 12.1,0.1c1,-0.9 1.5,-0.9 1.5,-0.1c0,0.6 1.4,1.1 3,1.1l3,0l0,-11l0,-11l-3,0c-2.8,0 -3,0.3 -3.1,3.7c-0.1,2.1 0,4.6 0.1,5.7c0.3,2.8 -2,7.4 -3.8,7.8c-1,0.3 -2.6,0.2 -3.7,-0.2c-1.7,-0.6 -2.1,-1.9 -2.5,-8.6c-0.5,-7.6 -0.6,-7.9 -3,-8.2c-1.4,-0.2 -2.9,0 -3.3,0.4z"/>
  <path id="svg_14" fill="#E3E3E3" d="m293.128,216l0,11l3,0l3,0l0,-6.5c0,-6.9 2,-10.5 5.8,-10.5c3.7,0 4.6,1.7 5,9.4l0.4,7.6l2.9,0l2.9,0l0,-7.3c0,-9.6 -0.6,-11.2 -4.6,-13.3c-2.9,-1.6 -4,-1.7 -7.6,-0.7c-2.6,0.7 -4.4,0.8 -4.6,0.2c-0.2,-0.5 -1.7,-0.9 -3.3,-0.9l-2.9,0l0,11z"/>
</svg>